<mxfile host="app.diagrams.net" modified="2024-02-29T18:08:46.299Z" agent="Mozilla/5.0 (Macintosh; Intel Mac OS X 10_15_7) AppleWebKit/537.36 (KHTML, like Gecko) Chrome/121.0.0.0 Safari/537.36" etag="UvsKm5JOZZoOzqCkLB7e" version="23.1.8" type="device">
  <diagram name="Page-1" id="5jwlC1-nUzxYW0pVRgor">
    <mxGraphModel dx="1450" dy="974" grid="0" gridSize="10" guides="1" tooltips="1" connect="1" arrows="1" fold="1" page="0" pageScale="1" pageWidth="150" pageHeight="100" math="0" shadow="0">
      <root>
        <mxCell id="0" />
        <mxCell id="1" parent="0" />
        <mxCell id="BosuhLitCPBsglQJC8IZ-157" style="rounded=0;orthogonalLoop=1;jettySize=auto;html=1;exitX=0.5;exitY=0;exitDx=0;exitDy=0;entryX=0.5;entryY=0;entryDx=0;entryDy=0;endArrow=none;endFill=0;" parent="1" source="2VZB6rV9Qvf97vIHL61_-299" edge="1">
          <mxGeometry relative="1" as="geometry">
            <mxPoint x="51" y="110" as="targetPoint" />
          </mxGeometry>
        </mxCell>
        <mxCell id="2VZB6rV9Qvf97vIHL61_-299" value="Futures" style="rhombus;whiteSpace=wrap;html=1;strokeColor=none;fillColor=none;fontColor=#000000;fontSize=13;strokeWidth=1;" parent="1" vertex="1">
          <mxGeometry x="1" y="120" width="50" height="20" as="geometry" />
        </mxCell>
        <mxCell id="2VZB6rV9Qvf97vIHL61_-300" value="traders" style="rhombus;whiteSpace=wrap;html=1;strokeColor=none;fillColor=none;fontColor=#000000;fontSize=13;strokeWidth=1;" parent="1" vertex="1">
          <mxGeometry x="51" y="120" width="50" height="20" as="geometry" />
        </mxCell>
        <mxCell id="2VZB6rV9Qvf97vIHL61_-301" value="say" style="rhombus;whiteSpace=wrap;html=1;strokeColor=none;fillColor=none;fontColor=#000000;fontSize=13;" parent="1" vertex="1">
          <mxGeometry x="101" y="120" width="50" height="20" as="geometry" />
        </mxCell>
        <mxCell id="2VZB6rV9Qvf97vIHL61_-302" value="the" style="rhombus;whiteSpace=wrap;html=1;strokeColor=none;fillColor=none;fontColor=#000000;fontSize=13;" parent="1" vertex="1">
          <mxGeometry x="151" y="120" width="50" height="20" as="geometry" />
        </mxCell>
        <mxCell id="2VZB6rV9Qvf97vIHL61_-303" value="S&amp;amp;P" style="rhombus;whiteSpace=wrap;html=1;strokeColor=none;fillColor=none;fontColor=#000000;fontSize=13;" parent="1" vertex="1">
          <mxGeometry x="201" y="120" width="50" height="20" as="geometry" />
        </mxCell>
        <mxCell id="2VZB6rV9Qvf97vIHL61_-304" value="was" style="rhombus;whiteSpace=wrap;html=1;strokeColor=none;fillColor=none;fontColor=#000000;fontSize=13;" parent="1" vertex="1">
          <mxGeometry x="251" y="120" width="50" height="20" as="geometry" />
        </mxCell>
        <mxCell id="2VZB6rV9Qvf97vIHL61_-305" value="signaling" style="rhombus;whiteSpace=wrap;html=1;strokeColor=none;fillColor=none;fontColor=#000000;fontSize=13;" parent="1" vertex="1">
          <mxGeometry x="301" y="120" width="50" height="20" as="geometry" />
        </mxCell>
        <mxCell id="2VZB6rV9Qvf97vIHL61_-306" value="that" style="rhombus;whiteSpace=wrap;html=1;strokeColor=none;fillColor=none;fontColor=#000000;fontSize=13;" parent="1" vertex="1">
          <mxGeometry x="351" y="120" width="50" height="20" as="geometry" />
        </mxCell>
        <mxCell id="2VZB6rV9Qvf97vIHL61_-307" value="the" style="rhombus;whiteSpace=wrap;html=1;strokeColor=none;fillColor=none;fontColor=#000000;fontSize=13;" parent="1" vertex="1">
          <mxGeometry x="401" y="120" width="50" height="20" as="geometry" />
        </mxCell>
        <mxCell id="2VZB6rV9Qvf97vIHL61_-308" value="dow" style="rhombus;whiteSpace=wrap;html=1;strokeColor=none;fillColor=none;fontColor=#000000;fontSize=13;" parent="1" vertex="1">
          <mxGeometry x="451" y="120" width="50" height="20" as="geometry" />
        </mxCell>
        <mxCell id="2VZB6rV9Qvf97vIHL61_-309" value="could" style="rhombus;whiteSpace=wrap;html=1;strokeColor=none;fillColor=none;fontColor=#000000;fontSize=13;" parent="1" vertex="1">
          <mxGeometry x="501" y="120" width="50" height="20" as="geometry" />
        </mxCell>
        <mxCell id="2VZB6rV9Qvf97vIHL61_-310" value="fall" style="rhombus;whiteSpace=wrap;html=1;strokeColor=none;fillColor=none;fontColor=#000000;fontSize=13;" parent="1" vertex="1">
          <mxGeometry x="551" y="120" width="50" height="20" as="geometry" />
        </mxCell>
        <mxCell id="2VZB6rV9Qvf97vIHL61_-311" value="as" style="rhombus;whiteSpace=wrap;html=1;strokeColor=none;fillColor=none;fontColor=#000000;fontSize=13;" parent="1" vertex="1">
          <mxGeometry x="601" y="120" width="50" height="20" as="geometry" />
        </mxCell>
        <mxCell id="BosuhLitCPBsglQJC8IZ-1" value="much" style="rhombus;whiteSpace=wrap;html=1;strokeColor=none;fillColor=none;fontColor=#000000;fontSize=13;" parent="1" vertex="1">
          <mxGeometry x="651" y="120" width="50" height="20" as="geometry" />
        </mxCell>
        <mxCell id="BosuhLitCPBsglQJC8IZ-2" value="as" style="rhombus;whiteSpace=wrap;html=1;strokeColor=none;fillColor=none;fontColor=#000000;fontSize=13;" parent="1" vertex="1">
          <mxGeometry x="702" y="120" width="49" height="20" as="geometry" />
        </mxCell>
        <mxCell id="BosuhLitCPBsglQJC8IZ-3" value="200" style="rhombus;whiteSpace=wrap;html=1;strokeColor=none;fillColor=none;fontColor=#000000;fontSize=13;" parent="1" vertex="1">
          <mxGeometry x="751" y="120" width="50" height="20" as="geometry" />
        </mxCell>
        <mxCell id="BosuhLitCPBsglQJC8IZ-161" style="rounded=0;orthogonalLoop=1;jettySize=auto;html=1;exitX=0.5;exitY=0;exitDx=0;exitDy=0;entryX=0.5;entryY=0;entryDx=0;entryDy=0;endArrow=none;endFill=0;" parent="1" source="BosuhLitCPBsglQJC8IZ-4" edge="1">
          <mxGeometry relative="1" as="geometry">
            <mxPoint x="801" y="110" as="targetPoint" />
          </mxGeometry>
        </mxCell>
        <mxCell id="BosuhLitCPBsglQJC8IZ-4" value="points" style="rhombus;whiteSpace=wrap;html=1;strokeColor=none;fillColor=none;fontColor=#000000;fontSize=13;" parent="1" vertex="1">
          <mxGeometry x="801" y="120" width="50" height="20" as="geometry" />
        </mxCell>
        <mxCell id="BosuhLitCPBsglQJC8IZ-159" style="rounded=0;orthogonalLoop=1;jettySize=auto;html=1;exitX=0.5;exitY=1;exitDx=0;exitDy=0;entryX=0.5;entryY=0;entryDx=0;entryDy=0;endArrow=none;endFill=0;strokeWidth=5;" parent="1" edge="1">
          <mxGeometry relative="1" as="geometry">
            <mxPoint x="76" y="120" as="sourcePoint" />
            <mxPoint x="51" y="110" as="targetPoint" />
          </mxGeometry>
        </mxCell>
        <mxCell id="BosuhLitCPBsglQJC8IZ-189" style="rounded=0;orthogonalLoop=1;jettySize=auto;html=1;exitX=0;exitY=0.5;exitDx=0;exitDy=0;entryX=1;entryY=0.5;entryDx=0;entryDy=0;strokeColor=#AFB7F8;endArrow=none;endFill=0;" parent="1" edge="1">
          <mxGeometry relative="1" as="geometry">
            <mxPoint x="132" y="122" as="sourcePoint" />
            <mxPoint x="407" y="12" as="targetPoint" />
          </mxGeometry>
        </mxCell>
        <mxCell id="BosuhLitCPBsglQJC8IZ-203" style="rounded=0;orthogonalLoop=1;jettySize=auto;html=1;exitX=0.5;exitY=1;exitDx=0;exitDy=0;entryX=0.5;entryY=0;entryDx=0;entryDy=0;strokeColor=#44E87B;endArrow=none;endFill=0;dashed=1;dashPattern=8 8;" parent="1" edge="1">
          <mxGeometry relative="1" as="geometry">
            <mxPoint x="287" y="122" as="sourcePoint" />
            <mxPoint x="387" y="82" as="targetPoint" />
          </mxGeometry>
        </mxCell>
        <mxCell id="BosuhLitCPBsglQJC8IZ-222" style="rounded=0;orthogonalLoop=1;jettySize=auto;html=1;exitX=0.364;exitY=0.144;exitDx=0;exitDy=0;entryX=0.5;entryY=0;entryDx=0;entryDy=0;strokeColor=#00DCFF;endArrow=none;endFill=0;exitPerimeter=0;dashed=1;dashPattern=1 2;" parent="1" source="2VZB6rV9Qvf97vIHL61_-304" edge="1">
          <mxGeometry relative="1" as="geometry">
            <mxPoint x="266" y="122" as="sourcePoint" />
            <mxPoint x="216" y="102" as="targetPoint" />
          </mxGeometry>
        </mxCell>
        <mxCell id="BosuhLitCPBsglQJC8IZ-228" style="rounded=0;orthogonalLoop=1;jettySize=auto;html=1;exitX=1;exitY=0.5;exitDx=0;exitDy=0;entryX=0.5;entryY=0;entryDx=0;entryDy=0;strokeColor=#00DCFF;endArrow=none;endFill=0;dashed=1;dashPattern=1 2;" parent="1" edge="1">
          <mxGeometry relative="1" as="geometry">
            <mxPoint x="371" y="120" as="sourcePoint" />
            <mxPoint x="196" y="50" as="targetPoint" />
          </mxGeometry>
        </mxCell>
        <mxCell id="BosuhLitCPBsglQJC8IZ-198" style="rounded=0;orthogonalLoop=1;jettySize=auto;html=1;exitX=1;exitY=0.5;exitDx=0;exitDy=0;entryX=0.5;entryY=1;entryDx=0;entryDy=0;strokeColor=#44E87B;endArrow=none;endFill=0;dashed=1;dashPattern=8 8;" parent="1" edge="1">
          <mxGeometry relative="1" as="geometry">
            <mxPoint x="432" y="120" as="sourcePoint" />
            <mxPoint x="407" y="110" as="targetPoint" />
          </mxGeometry>
        </mxCell>
        <mxCell id="BosuhLitCPBsglQJC8IZ-182" style="rounded=0;orthogonalLoop=1;jettySize=auto;html=1;exitX=0.5;exitY=1;exitDx=0;exitDy=0;entryX=0.5;entryY=1;entryDx=0;entryDy=0;strokeColor=#AFB7F8;endArrow=none;endFill=0;" parent="1" edge="1">
          <mxGeometry relative="1" as="geometry">
            <mxPoint x="376" y="120" as="sourcePoint" />
            <mxPoint x="526" y="60" as="targetPoint" />
          </mxGeometry>
        </mxCell>
        <mxCell id="BosuhLitCPBsglQJC8IZ-196" style="rounded=0;orthogonalLoop=1;jettySize=auto;html=1;exitX=0.5;exitY=1;exitDx=0;exitDy=0;entryX=0.5;entryY=0;entryDx=0;entryDy=0;strokeColor=#44E87B;endArrow=none;endFill=0;dashed=1;dashPattern=8 8;" parent="1" edge="1">
          <mxGeometry relative="1" as="geometry">
            <mxPoint x="385" y="121" as="sourcePoint" />
            <mxPoint x="410" y="111" as="targetPoint" />
          </mxGeometry>
        </mxCell>
        <mxCell id="BosuhLitCPBsglQJC8IZ-213" style="rounded=0;orthogonalLoop=1;jettySize=auto;html=1;exitX=0;exitY=0.5;exitDx=0;exitDy=0;entryX=0.5;entryY=1;entryDx=0;entryDy=0;strokeColor=#00DCFF;endArrow=none;endFill=0;dashed=1;dashPattern=1 2;" parent="1" edge="1">
          <mxGeometry relative="1" as="geometry">
            <mxPoint x="426" y="120" as="sourcePoint" />
            <mxPoint x="451" y="110" as="targetPoint" />
          </mxGeometry>
        </mxCell>
        <mxCell id="BosuhLitCPBsglQJC8IZ-201" style="rounded=0;orthogonalLoop=1;jettySize=auto;html=1;exitX=0.5;exitY=1;exitDx=0;exitDy=0;entryX=0.5;entryY=1;entryDx=0;entryDy=0;strokeColor=#44E87B;endArrow=none;endFill=0;dashed=1;dashPattern=8 8;" parent="1" edge="1">
          <mxGeometry relative="1" as="geometry">
            <mxPoint x="482" y="120" as="sourcePoint" />
            <mxPoint x="407" y="90" as="targetPoint" />
          </mxGeometry>
        </mxCell>
        <mxCell id="BosuhLitCPBsglQJC8IZ-215" style="rounded=0;orthogonalLoop=1;jettySize=auto;html=1;exitX=0.5;exitY=1;exitDx=0;exitDy=0;entryX=0.5;entryY=0;entryDx=0;entryDy=0;strokeColor=#00DCFF;endArrow=none;endFill=0;dashed=1;dashPattern=1 2;" parent="1" edge="1">
          <mxGeometry relative="1" as="geometry">
            <mxPoint x="471" y="122" as="sourcePoint" />
            <mxPoint x="446" y="112" as="targetPoint" />
          </mxGeometry>
        </mxCell>
        <mxCell id="BosuhLitCPBsglQJC8IZ-173" style="rounded=0;orthogonalLoop=1;jettySize=auto;html=1;exitX=0;exitY=0.5;exitDx=0;exitDy=0;entryX=0.5;entryY=1;entryDx=0;entryDy=0;strokeColor=#AFB7F8;endArrow=none;endFill=0;" parent="1" edge="1">
          <mxGeometry relative="1" as="geometry">
            <mxPoint x="524" y="122" as="sourcePoint" />
            <mxPoint x="549" y="112" as="targetPoint" />
          </mxGeometry>
        </mxCell>
        <mxCell id="BosuhLitCPBsglQJC8IZ-218" style="rounded=0;orthogonalLoop=1;jettySize=auto;html=1;exitX=1;exitY=0.5;exitDx=0;exitDy=0;entryX=0;entryY=0.5;entryDx=0;entryDy=0;strokeColor=#00DCFF;endArrow=none;endFill=0;dashed=1;dashPattern=1 2;" parent="1" edge="1">
          <mxGeometry relative="1" as="geometry">
            <mxPoint x="568" y="123" as="sourcePoint" />
            <mxPoint x="493" y="93" as="targetPoint" />
          </mxGeometry>
        </mxCell>
        <mxCell id="BosuhLitCPBsglQJC8IZ-174" style="rounded=0;orthogonalLoop=1;jettySize=auto;html=1;exitX=0;exitY=0.5;exitDx=0;exitDy=0;strokeColor=#AFB7F8;endArrow=none;endFill=0;" parent="1" edge="1">
          <mxGeometry relative="1" as="geometry">
            <mxPoint x="546" y="111" as="sourcePoint" />
            <mxPoint x="494" y="90" as="targetPoint" />
          </mxGeometry>
        </mxCell>
        <mxCell id="BosuhLitCPBsglQJC8IZ-194" style="rounded=0;orthogonalLoop=1;jettySize=auto;html=1;exitX=0.5;exitY=1;exitDx=0;exitDy=0;entryX=0.5;entryY=0;entryDx=0;entryDy=0;strokeColor=#44E87B;endArrow=none;endFill=0;dashed=1;dashPattern=8 8;" parent="1" edge="1">
          <mxGeometry relative="1" as="geometry">
            <mxPoint x="580" y="121" as="sourcePoint" />
            <mxPoint x="555" y="111" as="targetPoint" />
          </mxGeometry>
        </mxCell>
        <mxCell id="BosuhLitCPBsglQJC8IZ-163" style="rounded=0;orthogonalLoop=1;jettySize=auto;html=1;exitX=0;exitY=0.5;exitDx=0;exitDy=0;entryX=1;entryY=0.5;entryDx=0;entryDy=0;endArrow=none;endFill=0;strokeWidth=5;" parent="1" edge="1">
          <mxGeometry relative="1" as="geometry">
            <mxPoint x="726" y="120" as="sourcePoint" />
            <mxPoint x="776.0000000000002" y="100" as="targetPoint" />
          </mxGeometry>
        </mxCell>
        <mxCell id="BosuhLitCPBsglQJC8IZ-193" style="rounded=0;orthogonalLoop=1;jettySize=auto;html=1;exitX=0;exitY=0.5;exitDx=0;exitDy=0;entryX=1;entryY=0.5;entryDx=0;entryDy=0;strokeColor=#44E87B;endArrow=none;endFill=0;dashed=1;dashPattern=8 8;" parent="1" edge="1">
          <mxGeometry relative="1" as="geometry">
            <mxPoint x="626" y="120" as="sourcePoint" />
            <mxPoint x="726" y="80" as="targetPoint" />
          </mxGeometry>
        </mxCell>
        <mxCell id="BosuhLitCPBsglQJC8IZ-177" style="rounded=0;orthogonalLoop=1;jettySize=auto;html=1;exitX=0.5;exitY=1;exitDx=0;exitDy=0;entryX=0.5;entryY=0;entryDx=0;entryDy=0;strokeColor=#AFB7F8;endArrow=none;endFill=0;" parent="1" edge="1">
          <mxGeometry relative="1" as="geometry">
            <mxPoint x="676" y="120" as="sourcePoint" />
            <mxPoint x="651" y="110" as="targetPoint" />
          </mxGeometry>
        </mxCell>
        <mxCell id="BosuhLitCPBsglQJC8IZ-192" style="rounded=0;orthogonalLoop=1;jettySize=auto;html=1;exitX=0.5;exitY=1;exitDx=0;exitDy=0;entryX=0.5;entryY=0;entryDx=0;entryDy=0;strokeColor=#44E87B;endArrow=none;endFill=0;dashed=1;dashPattern=8 8;" parent="1" edge="1">
          <mxGeometry relative="1" as="geometry">
            <mxPoint x="677" y="121" as="sourcePoint" />
            <mxPoint x="752.0000000000002" y="91" as="targetPoint" />
          </mxGeometry>
        </mxCell>
        <mxCell id="BosuhLitCPBsglQJC8IZ-211" style="rounded=0;orthogonalLoop=1;jettySize=auto;html=1;exitX=0.5;exitY=1;exitDx=0;exitDy=0;entryX=0.5;entryY=0;entryDx=0;entryDy=0;strokeColor=#00DCFF;endArrow=none;endFill=0;dashed=1;dashPattern=1 2;" parent="1" edge="1">
          <mxGeometry relative="1" as="geometry">
            <mxPoint x="685" y="122" as="sourcePoint" />
            <mxPoint x="760.0000000000002" y="92" as="targetPoint" />
          </mxGeometry>
        </mxCell>
        <mxCell id="BosuhLitCPBsglQJC8IZ-178" style="rounded=0;orthogonalLoop=1;jettySize=auto;html=1;exitX=0.5;exitY=1;exitDx=0;exitDy=0;entryX=0.5;entryY=0;entryDx=0;entryDy=0;strokeColor=#AFB7F8;endArrow=none;endFill=0;" parent="1" edge="1">
          <mxGeometry relative="1" as="geometry">
            <mxPoint x="630" y="122" as="sourcePoint" />
            <mxPoint x="655" y="112" as="targetPoint" />
          </mxGeometry>
        </mxCell>
        <mxCell id="BosuhLitCPBsglQJC8IZ-212" style="rounded=0;orthogonalLoop=1;jettySize=auto;html=1;exitX=0.5;exitY=1;exitDx=0;exitDy=0;entryX=0.5;entryY=0;entryDx=0;entryDy=0;strokeColor=#00DCFF;endArrow=none;endFill=0;dashed=1;dashPattern=1 2;" parent="1" edge="1">
          <mxGeometry relative="1" as="geometry">
            <mxPoint x="619" y="120" as="sourcePoint" />
            <mxPoint x="719" y="80" as="targetPoint" />
          </mxGeometry>
        </mxCell>
        <mxCell id="BosuhLitCPBsglQJC8IZ-180" style="rounded=0;orthogonalLoop=1;jettySize=auto;html=1;exitX=0.5;exitY=1;exitDx=0;exitDy=0;entryX=0.5;entryY=0;entryDx=0;entryDy=0;strokeColor=#AFB7F8;endArrow=none;endFill=0;" parent="1" edge="1">
          <mxGeometry relative="1" as="geometry">
            <mxPoint x="651" y="110" as="sourcePoint" />
            <mxPoint x="551" y="70" as="targetPoint" />
          </mxGeometry>
        </mxCell>
        <mxCell id="BosuhLitCPBsglQJC8IZ-195" style="rounded=0;orthogonalLoop=1;jettySize=auto;html=1;exitX=0.5;exitY=1;exitDx=0;exitDy=0;entryX=0.5;entryY=0;entryDx=0;entryDy=0;strokeColor=#44E87B;endArrow=none;endFill=0;dashed=1;dashPattern=8 8;" parent="1" edge="1">
          <mxGeometry relative="1" as="geometry">
            <mxPoint x="532" y="122" as="sourcePoint" />
            <mxPoint x="557" y="112" as="targetPoint" />
          </mxGeometry>
        </mxCell>
        <mxCell id="BosuhLitCPBsglQJC8IZ-217" style="rounded=0;orthogonalLoop=1;jettySize=auto;html=1;exitX=0.5;exitY=1;exitDx=0;exitDy=0;entryX=0.5;entryY=0;entryDx=0;entryDy=0;strokeColor=#00DCFF;endArrow=none;endFill=0;dashed=1;dashPattern=1 2;" parent="1" edge="1">
          <mxGeometry relative="1" as="geometry">
            <mxPoint x="518" y="123" as="sourcePoint" />
            <mxPoint x="468" y="103" as="targetPoint" />
          </mxGeometry>
        </mxCell>
        <mxCell id="BosuhLitCPBsglQJC8IZ-208" style="rounded=0;orthogonalLoop=1;jettySize=auto;html=1;exitX=0.5;exitY=1;exitDx=0;exitDy=0;entryX=0.5;entryY=1;entryDx=0;entryDy=0;strokeColor=#44E87B;endArrow=none;endFill=0;dashed=1;dashPattern=8 8;" parent="1" edge="1">
          <mxGeometry relative="1" as="geometry">
            <mxPoint x="555" y="111" as="sourcePoint" />
            <mxPoint x="380" y="41" as="targetPoint" />
          </mxGeometry>
        </mxCell>
        <mxCell id="BosuhLitCPBsglQJC8IZ-181" style="rounded=0;orthogonalLoop=1;jettySize=auto;html=1;exitX=0;exitY=0.5;exitDx=0;exitDy=0;entryX=0.5;entryY=0;entryDx=0;entryDy=0;strokeColor=#AFB7F8;endArrow=none;endFill=0;" parent="1" edge="1">
          <mxGeometry relative="1" as="geometry">
            <mxPoint x="551" y="70" as="sourcePoint" />
            <mxPoint x="526" y="60" as="targetPoint" />
          </mxGeometry>
        </mxCell>
        <mxCell id="BosuhLitCPBsglQJC8IZ-176" style="rounded=0;orthogonalLoop=1;jettySize=auto;html=1;exitX=0.5;exitY=1;exitDx=0;exitDy=0;entryX=0.5;entryY=0;entryDx=0;entryDy=0;strokeColor=#AFB7F8;endArrow=none;endFill=0;" parent="1" edge="1">
          <mxGeometry relative="1" as="geometry">
            <mxPoint x="445" y="110" as="sourcePoint" />
            <mxPoint x="495" y="90" as="targetPoint" />
          </mxGeometry>
        </mxCell>
        <mxCell id="BosuhLitCPBsglQJC8IZ-216" style="rounded=0;orthogonalLoop=1;jettySize=auto;html=1;exitX=0.5;exitY=1;exitDx=0;exitDy=0;entryX=0.5;entryY=0;entryDx=0;entryDy=0;strokeColor=#00DCFF;endArrow=none;endFill=0;dashed=1;dashPattern=1 2;" parent="1" edge="1">
          <mxGeometry relative="1" as="geometry">
            <mxPoint x="451" y="110" as="sourcePoint" />
            <mxPoint x="476" y="100" as="targetPoint" />
          </mxGeometry>
        </mxCell>
        <mxCell id="BosuhLitCPBsglQJC8IZ-219" style="rounded=0;orthogonalLoop=1;jettySize=auto;html=1;exitX=0.5;exitY=1;exitDx=0;exitDy=0;entryX=0;entryY=0.5;entryDx=0;entryDy=0;strokeColor=#00DCFF;endArrow=none;endFill=0;dashed=1;dashPattern=1 2;" parent="1" edge="1">
          <mxGeometry relative="1" as="geometry">
            <mxPoint x="476" y="100" as="sourcePoint" />
            <mxPoint x="501" y="90" as="targetPoint" />
          </mxGeometry>
        </mxCell>
        <mxCell id="BosuhLitCPBsglQJC8IZ-179" style="rounded=0;orthogonalLoop=1;jettySize=auto;html=1;exitX=0.5;exitY=1;exitDx=0;exitDy=0;strokeColor=#AFB7F8;endArrow=none;endFill=0;" parent="1" edge="1">
          <mxGeometry relative="1" as="geometry">
            <mxPoint x="495" y="90" as="sourcePoint" />
            <mxPoint x="547" y="69" as="targetPoint" />
          </mxGeometry>
        </mxCell>
        <mxCell id="BosuhLitCPBsglQJC8IZ-220" style="rounded=0;orthogonalLoop=1;jettySize=auto;html=1;exitX=0.5;exitY=1;exitDx=0;exitDy=0;entryX=1;entryY=0.5;entryDx=0;entryDy=0;strokeColor=#00DCFF;endArrow=none;endFill=0;dashed=1;dashPattern=1 2;" parent="1" edge="1">
          <mxGeometry relative="1" as="geometry">
            <mxPoint x="501" y="90" as="sourcePoint" />
            <mxPoint x="626" y="40" as="targetPoint" />
          </mxGeometry>
        </mxCell>
        <mxCell id="BosuhLitCPBsglQJC8IZ-186" style="rounded=0;orthogonalLoop=1;jettySize=auto;html=1;exitX=0;exitY=0.5;exitDx=0;exitDy=0;entryX=0.5;entryY=1;entryDx=0;entryDy=0;strokeColor=#AFB7F8;endArrow=none;endFill=0;" parent="1" edge="1">
          <mxGeometry relative="1" as="geometry">
            <mxPoint x="526" y="60" as="sourcePoint" />
            <mxPoint x="426" y="20" as="targetPoint" />
          </mxGeometry>
        </mxCell>
        <mxCell id="BosuhLitCPBsglQJC8IZ-200" style="rounded=0;orthogonalLoop=1;jettySize=auto;html=1;exitX=0.5;exitY=1;exitDx=0;exitDy=0;entryX=0.5;entryY=0;entryDx=0;entryDy=0;strokeColor=#44E87B;endArrow=none;endFill=0;dashed=1;dashPattern=8 8;" parent="1" edge="1">
          <mxGeometry relative="1" as="geometry">
            <mxPoint x="407" y="110" as="sourcePoint" />
            <mxPoint x="382" y="100" as="targetPoint" />
          </mxGeometry>
        </mxCell>
        <mxCell id="BosuhLitCPBsglQJC8IZ-168" style="rounded=0;orthogonalLoop=1;jettySize=auto;html=1;exitX=0.5;exitY=1;exitDx=0;exitDy=0;entryX=0.5;entryY=0;entryDx=0;entryDy=0;fillColor=#f8cecc;strokeColor=#AFB7F8;endArrow=none;endFill=0;" parent="1" edge="1">
          <mxGeometry relative="1" as="geometry">
            <mxPoint x="322" y="122" as="sourcePoint" />
            <mxPoint x="297" y="112" as="targetPoint" />
          </mxGeometry>
        </mxCell>
        <mxCell id="BosuhLitCPBsglQJC8IZ-199" style="rounded=0;orthogonalLoop=1;jettySize=auto;html=1;exitX=0.5;exitY=1;exitDx=0;exitDy=0;entryX=0.5;entryY=0;entryDx=0;entryDy=0;strokeColor=#44E87B;endArrow=none;endFill=0;dashed=1;dashPattern=8 8;" parent="1" edge="1">
          <mxGeometry relative="1" as="geometry">
            <mxPoint x="332" y="120" as="sourcePoint" />
            <mxPoint x="382" y="100" as="targetPoint" />
          </mxGeometry>
        </mxCell>
        <mxCell id="BosuhLitCPBsglQJC8IZ-204" style="rounded=0;orthogonalLoop=1;jettySize=auto;html=1;exitX=0.5;exitY=1;exitDx=0;exitDy=0;entryX=0.5;entryY=0;entryDx=0;entryDy=0;strokeColor=#44E87B;endArrow=none;endFill=0;dashed=1;dashPattern=8 8;" parent="1" edge="1">
          <mxGeometry relative="1" as="geometry">
            <mxPoint x="407" y="90" as="sourcePoint" />
            <mxPoint x="382" y="80" as="targetPoint" />
          </mxGeometry>
        </mxCell>
        <mxCell id="BosuhLitCPBsglQJC8IZ-205" style="rounded=0;orthogonalLoop=1;jettySize=auto;html=1;exitX=0;exitY=0.5;exitDx=0;exitDy=0;strokeColor=#44E87B;endArrow=none;endFill=0;dashed=1;dashPattern=8 8;" parent="1" edge="1">
          <mxGeometry relative="1" as="geometry">
            <mxPoint x="382" y="80" as="sourcePoint" />
            <mxPoint x="333" y="60" as="targetPoint" />
          </mxGeometry>
        </mxCell>
        <mxCell id="BosuhLitCPBsglQJC8IZ-184" style="rounded=0;orthogonalLoop=1;jettySize=auto;html=1;exitX=0.5;exitY=1;exitDx=0;exitDy=0;entryX=0.5;entryY=0;entryDx=0;entryDy=0;strokeColor=#AFB7F8;endArrow=none;endFill=0;" parent="1" edge="1">
          <mxGeometry relative="1" as="geometry">
            <mxPoint x="297" y="112" as="sourcePoint" />
            <mxPoint x="247" y="92" as="targetPoint" />
          </mxGeometry>
        </mxCell>
        <mxCell id="BosuhLitCPBsglQJC8IZ-183" style="rounded=0;orthogonalLoop=1;jettySize=auto;html=1;exitX=0;exitY=0.5;exitDx=0;exitDy=0;entryX=0.5;entryY=0;entryDx=0;entryDy=0;strokeColor=#AFB7F8;endArrow=none;endFill=0;" parent="1" edge="1">
          <mxGeometry relative="1" as="geometry">
            <mxPoint x="202" y="110" as="sourcePoint" />
            <mxPoint x="252" y="90" as="targetPoint" />
          </mxGeometry>
        </mxCell>
        <mxCell id="BosuhLitCPBsglQJC8IZ-206" style="rounded=0;orthogonalLoop=1;jettySize=auto;html=1;exitX=0.5;exitY=1;exitDx=0;exitDy=0;entryX=0.5;entryY=0;entryDx=0;entryDy=0;strokeColor=#44E87B;endArrow=none;endFill=0;dashed=1;dashPattern=8 8;" parent="1" edge="1">
          <mxGeometry relative="1" as="geometry">
            <mxPoint x="208" y="110" as="sourcePoint" />
            <mxPoint x="333" y="60" as="targetPoint" />
          </mxGeometry>
        </mxCell>
        <mxCell id="BosuhLitCPBsglQJC8IZ-221" style="rounded=0;orthogonalLoop=1;jettySize=auto;html=1;exitX=0.5;exitY=1;exitDx=0;exitDy=0;entryX=0.5;entryY=0;entryDx=0;entryDy=0;strokeColor=#00DCFF;endArrow=none;endFill=0;dashed=1;dashPattern=1 2;" parent="1" edge="1">
          <mxGeometry relative="1" as="geometry">
            <mxPoint x="199" y="109" as="sourcePoint" />
            <mxPoint x="224" y="99" as="targetPoint" />
          </mxGeometry>
        </mxCell>
        <mxCell id="BosuhLitCPBsglQJC8IZ-225" style="rounded=0;orthogonalLoop=1;jettySize=auto;html=1;exitX=0.5;exitY=1;exitDx=0;exitDy=0;entryX=0.5;entryY=0;entryDx=0;entryDy=0;strokeColor=#00DCFF;endArrow=none;endFill=0;dashed=1;dashPattern=1 2;" parent="1" edge="1">
          <mxGeometry relative="1" as="geometry">
            <mxPoint x="224" y="99" as="sourcePoint" />
            <mxPoint x="249" y="89" as="targetPoint" />
          </mxGeometry>
        </mxCell>
        <mxCell id="BosuhLitCPBsglQJC8IZ-187" style="rounded=0;orthogonalLoop=1;jettySize=auto;html=1;exitX=0.5;exitY=1;exitDx=0;exitDy=0;entryX=0.5;entryY=0;entryDx=0;entryDy=0;strokeColor=#AFB7F8;endArrow=none;endFill=0;" parent="1" edge="1">
          <mxGeometry relative="1" as="geometry">
            <mxPoint x="252" y="90" as="sourcePoint" />
            <mxPoint x="427" y="20" as="targetPoint" />
          </mxGeometry>
        </mxCell>
        <mxCell id="BosuhLitCPBsglQJC8IZ-227" style="rounded=0;orthogonalLoop=1;jettySize=auto;html=1;exitX=0.5;exitY=1;exitDx=0;exitDy=0;entryX=0.5;entryY=0;entryDx=0;entryDy=0;strokeColor=#00DCFF;endArrow=none;endFill=0;dashed=1;dashPattern=1 2;" parent="1" edge="1">
          <mxGeometry relative="1" as="geometry">
            <mxPoint x="251" y="90" as="sourcePoint" />
            <mxPoint x="176" y="60" as="targetPoint" />
          </mxGeometry>
        </mxCell>
        <mxCell id="BosuhLitCPBsglQJC8IZ-207" style="rounded=0;orthogonalLoop=1;jettySize=auto;html=1;exitX=0.5;exitY=1;exitDx=0;exitDy=0;entryX=0.5;entryY=0;entryDx=0;entryDy=0;strokeColor=#44E87B;endArrow=none;endFill=0;dashed=1;dashPattern=8 8;" parent="1" edge="1">
          <mxGeometry relative="1" as="geometry">
            <mxPoint x="333" y="60" as="sourcePoint" />
            <mxPoint x="383" y="40" as="targetPoint" />
          </mxGeometry>
        </mxCell>
        <mxCell id="BosuhLitCPBsglQJC8IZ-209" style="rounded=0;orthogonalLoop=1;jettySize=auto;html=1;exitX=0.5;exitY=1;exitDx=0;exitDy=0;strokeColor=#44E87B;endArrow=none;endFill=0;dashed=1;dashPattern=8 8;" parent="1" edge="1">
          <mxGeometry relative="1" as="geometry">
            <mxPoint x="383" y="40" as="sourcePoint" />
            <mxPoint x="503" y="-8" as="targetPoint" />
          </mxGeometry>
        </mxCell>
        <mxCell id="BosuhLitCPBsglQJC8IZ-188" style="rounded=0;orthogonalLoop=1;jettySize=auto;html=1;exitX=0.5;exitY=1;exitDx=0;exitDy=0;strokeColor=#AFB7F8;endArrow=none;endFill=0;" parent="1" edge="1">
          <mxGeometry relative="1" as="geometry">
            <mxPoint x="426" y="20" as="sourcePoint" />
            <mxPoint x="407" y="12" as="targetPoint" />
          </mxGeometry>
        </mxCell>
        <mxCell id="BosuhLitCPBsglQJC8IZ-210" style="rounded=0;orthogonalLoop=1;jettySize=auto;html=1;exitX=0.5;exitY=1;exitDx=0;exitDy=0;entryX=1;entryY=0.5;entryDx=0;entryDy=0;strokeColor=#44E87B;endArrow=none;endFill=0;dashed=1;dashPattern=8 8;" parent="1" edge="1">
          <mxGeometry relative="1" as="geometry">
            <mxPoint x="126" y="121" as="sourcePoint" />
            <mxPoint x="476" y="-19" as="targetPoint" />
          </mxGeometry>
        </mxCell>
        <mxCell id="BosuhLitCPBsglQJC8IZ-226" style="rounded=0;orthogonalLoop=1;jettySize=auto;html=1;exitX=0.5;exitY=1;exitDx=0;exitDy=0;entryX=0.5;entryY=0;entryDx=0;entryDy=0;strokeColor=#00DCFF;endArrow=none;endFill=0;dashed=1;dashPattern=1 2;" parent="1" edge="1">
          <mxGeometry relative="1" as="geometry">
            <mxPoint x="121" y="122" as="sourcePoint" />
            <mxPoint x="71" y="102" as="targetPoint" />
          </mxGeometry>
        </mxCell>
        <mxCell id="BosuhLitCPBsglQJC8IZ-190" style="rounded=0;orthogonalLoop=1;jettySize=auto;html=1;exitX=0.5;exitY=1;exitDx=0;exitDy=0;entryX=0.5;entryY=0;entryDx=0;entryDy=0;strokeColor=#AFB7F8;endArrow=none;endFill=0;" parent="1" edge="1">
          <mxGeometry relative="1" as="geometry">
            <mxPoint x="407" y="12" as="sourcePoint" />
            <mxPoint x="482" y="-18" as="targetPoint" />
          </mxGeometry>
        </mxCell>
        <mxCell id="BosuhLitCPBsglQJC8IZ-160" style="rounded=0;orthogonalLoop=1;jettySize=auto;html=1;exitX=0;exitY=0.5;exitDx=0;exitDy=0;entryX=0.5;entryY=0;entryDx=0;entryDy=0;endArrow=none;endFill=0;strokeWidth=5;" parent="1" edge="1">
          <mxGeometry relative="1" as="geometry">
            <mxPoint x="776" y="120" as="sourcePoint" />
            <mxPoint x="801" y="110" as="targetPoint" />
          </mxGeometry>
        </mxCell>
        <mxCell id="BosuhLitCPBsglQJC8IZ-162" style="rounded=0;orthogonalLoop=1;jettySize=auto;html=1;exitX=1;exitY=0.5;exitDx=0;exitDy=0;entryX=0.5;entryY=0;entryDx=0;entryDy=0;endArrow=none;endFill=0;" parent="1" edge="1">
          <mxGeometry relative="1" as="geometry">
            <mxPoint x="801" y="110" as="sourcePoint" />
            <mxPoint x="776" y="100" as="targetPoint" />
          </mxGeometry>
        </mxCell>
        <mxCell id="BosuhLitCPBsglQJC8IZ-166" style="rounded=0;orthogonalLoop=1;jettySize=auto;html=1;exitX=0.5;exitY=1;exitDx=0;exitDy=0;endArrow=none;endFill=0;strokeWidth=5;" parent="1" edge="1">
          <mxGeometry relative="1" as="geometry">
            <mxPoint x="226" y="120" as="sourcePoint" />
            <mxPoint x="200" y="110" as="targetPoint" />
          </mxGeometry>
        </mxCell>
        <mxCell id="BosuhLitCPBsglQJC8IZ-167" style="rounded=0;orthogonalLoop=1;jettySize=auto;html=1;exitX=0.5;exitY=1;exitDx=0;exitDy=0;entryX=1;entryY=0.5;entryDx=0;entryDy=0;fillColor=#f8cecc;strokeColor=#AFB7F8;endArrow=none;endFill=0;" parent="1" edge="1">
          <mxGeometry relative="1" as="geometry">
            <mxPoint x="274" y="123" as="sourcePoint" />
            <mxPoint x="299" y="113" as="targetPoint" />
          </mxGeometry>
        </mxCell>
        <mxCell id="BosuhLitCPBsglQJC8IZ-169" style="rounded=0;orthogonalLoop=1;jettySize=auto;html=1;exitX=0;exitY=0.5;exitDx=0;exitDy=0;entryX=0.5;entryY=0;entryDx=0;entryDy=0;strokeColor=#AFB7F8;endArrow=none;endFill=0;" parent="1" edge="1">
          <mxGeometry relative="1" as="geometry">
            <mxPoint x="420" y="120" as="sourcePoint" />
            <mxPoint x="445" y="110" as="targetPoint" />
          </mxGeometry>
        </mxCell>
        <mxCell id="BosuhLitCPBsglQJC8IZ-172" style="rounded=0;orthogonalLoop=1;jettySize=auto;html=1;exitX=1;exitY=0.5;exitDx=0;exitDy=0;entryX=0.5;entryY=0;entryDx=0;entryDy=0;strokeColor=#AFB7F8;endArrow=none;endFill=0;" parent="1" edge="1">
          <mxGeometry relative="1" as="geometry">
            <mxPoint x="571" y="121" as="sourcePoint" />
            <mxPoint x="546" y="111" as="targetPoint" />
          </mxGeometry>
        </mxCell>
        <mxCell id="BosuhLitCPBsglQJC8IZ-202" style="rounded=0;orthogonalLoop=1;jettySize=auto;html=1;exitX=0.5;exitY=1;exitDx=0;exitDy=0;entryX=1;entryY=0.5;entryDx=0;entryDy=0;strokeColor=#44E87B;endArrow=none;endFill=0;dashed=1;dashPattern=8 8;" parent="1" edge="1">
          <mxGeometry relative="1" as="geometry">
            <mxPoint x="382" y="100" as="sourcePoint" />
            <mxPoint x="407" y="90" as="targetPoint" />
          </mxGeometry>
        </mxCell>
        <mxCell id="BosuhLitCPBsglQJC8IZ-229" style="rounded=0;orthogonalLoop=1;jettySize=auto;html=1;exitX=0.5;exitY=1;exitDx=0;exitDy=0;strokeColor=#AFB7F8;endArrow=none;endFill=0;" parent="1" edge="1">
          <mxGeometry relative="1" as="geometry">
            <mxPoint x="476" y="121" as="sourcePoint" />
            <mxPoint x="447" y="109" as="targetPoint" />
          </mxGeometry>
        </mxCell>
        <mxCell id="BosuhLitCPBsglQJC8IZ-230" style="rounded=0;orthogonalLoop=1;jettySize=auto;html=1;exitX=0;exitY=0.5;exitDx=0;exitDy=0;endArrow=none;endFill=0;strokeWidth=5;" parent="1" edge="1">
          <mxGeometry relative="1" as="geometry">
            <mxPoint x="26" y="120" as="sourcePoint" />
            <mxPoint x="427" y="-40" as="targetPoint" />
          </mxGeometry>
        </mxCell>
        <mxCell id="BosuhLitCPBsglQJC8IZ-231" style="rounded=0;orthogonalLoop=1;jettySize=auto;html=1;exitX=1;exitY=0.5;exitDx=0;exitDy=0;endArrow=none;endFill=0;strokeWidth=5;" parent="1" edge="1">
          <mxGeometry relative="1" as="geometry">
            <mxPoint x="826" y="120" as="sourcePoint" />
            <mxPoint x="425" y="-40" as="targetPoint" />
          </mxGeometry>
        </mxCell>
        <mxCell id="BosuhLitCPBsglQJC8IZ-232" style="rounded=0;orthogonalLoop=1;jettySize=auto;html=1;endArrow=none;endFill=0;strokeWidth=5;" parent="1" edge="1">
          <mxGeometry relative="1" as="geometry">
            <mxPoint x="176" y="120" as="sourcePoint" />
            <mxPoint x="202" y="110" as="targetPoint" />
          </mxGeometry>
        </mxCell>
        <mxCell id="BosuhLitCPBsglQJC8IZ-233" style="rounded=0;orthogonalLoop=1;jettySize=auto;html=1;exitX=0.5;exitY=1;exitDx=0;exitDy=0;entryX=0.5;entryY=0;entryDx=0;entryDy=0;strokeColor=#00DCFF;endArrow=none;endFill=0;dashed=1;dashPattern=1 2;" parent="1" edge="1">
          <mxGeometry relative="1" as="geometry">
            <mxPoint x="326" y="120" as="sourcePoint" />
            <mxPoint x="251" y="90" as="targetPoint" />
          </mxGeometry>
        </mxCell>
        <mxCell id="g1oebkqXrRwOGZYb2xab-1" style="rounded=0;orthogonalLoop=1;jettySize=auto;html=1;exitX=0.5;exitY=0;exitDx=0;exitDy=0;entryX=0.5;entryY=0;entryDx=0;entryDy=0;endArrow=none;endFill=0;strokeWidth=2;" parent="1" source="g1oebkqXrRwOGZYb2xab-2" edge="1">
          <mxGeometry relative="1" as="geometry">
            <mxPoint x="51" y="320" as="targetPoint" />
          </mxGeometry>
        </mxCell>
        <mxCell id="g1oebkqXrRwOGZYb2xab-134" style="rounded=0;orthogonalLoop=1;jettySize=auto;html=1;exitX=0;exitY=0.5;exitDx=0;exitDy=0;entryX=0;entryY=0.5;entryDx=0;entryDy=0;endArrow=async;strokeColor=#B7D94A;startArrow=async;startFill=1;endFill=1;strokeWidth=2;fillColor=#fff2cc;gradientColor=#ffd966;endSize=3;targetPerimeterSpacing=0;jumpSize=6;startSize=3;" parent="1" edge="1">
          <mxGeometry relative="1" as="geometry">
            <mxPoint x="1" y="350" as="sourcePoint" />
            <mxPoint x="101" y="350" as="targetPoint" />
          </mxGeometry>
        </mxCell>
        <mxCell id="g1oebkqXrRwOGZYb2xab-2" value="Futures" style="rhombus;whiteSpace=wrap;html=1;strokeColor=none;fillColor=none;fontColor=#000000;fontSize=13;strokeWidth=1;" parent="1" vertex="1">
          <mxGeometry x="1" y="330" width="50" height="20" as="geometry" />
        </mxCell>
        <mxCell id="g1oebkqXrRwOGZYb2xab-3" value="traders" style="rhombus;whiteSpace=wrap;html=1;strokeColor=none;fillColor=none;fontColor=#000000;fontSize=13;strokeWidth=1;" parent="1" vertex="1">
          <mxGeometry x="51" y="330" width="50" height="20" as="geometry" />
        </mxCell>
        <mxCell id="g1oebkqXrRwOGZYb2xab-133" style="rounded=0;orthogonalLoop=1;jettySize=auto;html=1;exitX=0;exitY=0.5;exitDx=0;exitDy=0;entryX=1;entryY=0.5;entryDx=0;entryDy=0;endArrow=async;strokeColor=#B7D94A;startArrow=async;startFill=1;endFill=1;strokeWidth=2;fillColor=#fff2cc;gradientColor=#ffd966;endSize=3;targetPerimeterSpacing=0;jumpSize=6;startSize=3;" parent="1" edge="1">
          <mxGeometry relative="1" as="geometry">
            <mxPoint x="101" y="400" as="sourcePoint" />
            <mxPoint x="851" y="400" as="targetPoint" />
          </mxGeometry>
        </mxCell>
        <mxCell id="g1oebkqXrRwOGZYb2xab-4" value="say" style="rhombus;whiteSpace=wrap;html=1;strokeColor=none;fillColor=none;fontColor=#000000;fontSize=13;" parent="1" vertex="1">
          <mxGeometry x="101" y="330" width="50" height="20" as="geometry" />
        </mxCell>
        <mxCell id="g1oebkqXrRwOGZYb2xab-131" style="rounded=0;orthogonalLoop=1;jettySize=auto;html=1;exitX=0;exitY=0.5;exitDx=0;exitDy=0;entryX=0;entryY=0.5;entryDx=0;entryDy=0;endArrow=async;strokeColor=#B7D94A;startArrow=async;startFill=1;endFill=1;strokeWidth=2;fillColor=#fff2cc;gradientColor=#ffd966;endSize=3;targetPerimeterSpacing=0;jumpSize=6;startSize=3;" parent="1" edge="1">
          <mxGeometry relative="1" as="geometry">
            <mxPoint x="151" y="350" as="sourcePoint" />
            <mxPoint x="251" y="350" as="targetPoint" />
          </mxGeometry>
        </mxCell>
        <mxCell id="g1oebkqXrRwOGZYb2xab-132" style="rounded=0;orthogonalLoop=1;jettySize=auto;html=1;exitX=0;exitY=0.5;exitDx=0;exitDy=0;entryX=1;entryY=0.5;entryDx=0;entryDy=0;endArrow=async;strokeColor=#B7D94A;startArrow=async;startFill=1;endFill=1;strokeWidth=2;fillColor=#fff2cc;gradientColor=#ffd966;endSize=3;targetPerimeterSpacing=0;jumpSize=6;startSize=3;" parent="1" edge="1">
          <mxGeometry relative="1" as="geometry">
            <mxPoint x="151" y="395" as="sourcePoint" />
            <mxPoint x="851" y="395" as="targetPoint" />
          </mxGeometry>
        </mxCell>
        <mxCell id="g1oebkqXrRwOGZYb2xab-5" value="the" style="rhombus;whiteSpace=wrap;html=1;strokeColor=none;fillColor=none;fontColor=#000000;fontSize=13;" parent="1" vertex="1">
          <mxGeometry x="151" y="330" width="50" height="20" as="geometry" />
        </mxCell>
        <mxCell id="g1oebkqXrRwOGZYb2xab-6" value="S&amp;amp;P" style="rhombus;whiteSpace=wrap;html=1;strokeColor=none;fillColor=none;fontColor=#000000;fontSize=13;" parent="1" vertex="1">
          <mxGeometry x="201" y="330" width="50" height="20" as="geometry" />
        </mxCell>
        <mxCell id="g1oebkqXrRwOGZYb2xab-130" style="rounded=0;orthogonalLoop=1;jettySize=auto;html=1;exitX=0;exitY=0.5;exitDx=0;exitDy=0;entryX=1;entryY=0.5;entryDx=0;entryDy=0;endArrow=async;strokeColor=#ff9a98;startArrow=async;startFill=1;endFill=1;strokeWidth=2;fillColor=#fff2cc;gradientColor=#ffd966;endSize=3;targetPerimeterSpacing=0;jumpSize=6;startSize=3;dashed=1;" parent="1" edge="1">
          <mxGeometry relative="1" as="geometry">
            <mxPoint x="251" y="390" as="sourcePoint" />
            <mxPoint x="851" y="390" as="targetPoint" />
          </mxGeometry>
        </mxCell>
        <mxCell id="g1oebkqXrRwOGZYb2xab-7" value="was" style="rhombus;whiteSpace=wrap;html=1;strokeColor=none;fillColor=none;fontColor=#000000;fontSize=13;" parent="1" vertex="1">
          <mxGeometry x="251" y="330" width="50" height="20" as="geometry" />
        </mxCell>
        <mxCell id="g1oebkqXrRwOGZYb2xab-129" style="rounded=0;orthogonalLoop=1;jettySize=auto;html=1;exitX=0;exitY=0.5;exitDx=0;exitDy=0;entryX=1;entryY=0.5;entryDx=0;entryDy=0;endArrow=async;strokeColor=#ff9a98;startArrow=async;startFill=1;endFill=1;strokeWidth=2;fillColor=#fff2cc;gradientColor=#ffd966;endSize=3;targetPerimeterSpacing=0;jumpSize=6;startSize=3;dashed=1;" parent="1" edge="1">
          <mxGeometry relative="1" as="geometry">
            <mxPoint x="301" y="385" as="sourcePoint" />
            <mxPoint x="851" y="385" as="targetPoint" />
          </mxGeometry>
        </mxCell>
        <mxCell id="g1oebkqXrRwOGZYb2xab-8" value="signaling" style="rhombus;whiteSpace=wrap;html=1;strokeColor=none;fillColor=none;fontColor=#000000;fontSize=13;" parent="1" vertex="1">
          <mxGeometry x="301" y="330" width="50" height="20" as="geometry" />
        </mxCell>
        <mxCell id="g1oebkqXrRwOGZYb2xab-128" style="rounded=0;orthogonalLoop=1;jettySize=auto;html=1;exitX=0;exitY=0.5;exitDx=0;exitDy=0;entryX=1;entryY=0.5;entryDx=0;entryDy=0;endArrow=async;strokeColor=#b5b0f8;startArrow=async;startFill=1;endFill=1;strokeWidth=2;fillColor=#d5e8d4;gradientColor=#97d077;endSize=3;targetPerimeterSpacing=0;jumpSize=6;startSize=3;dashed=1;dashPattern=1 1;" parent="1" edge="1">
          <mxGeometry relative="1" as="geometry">
            <mxPoint x="351" y="380" as="sourcePoint" />
            <mxPoint x="851" y="380" as="targetPoint" />
          </mxGeometry>
        </mxCell>
        <mxCell id="g1oebkqXrRwOGZYb2xab-9" value="that" style="rhombus;whiteSpace=wrap;html=1;strokeColor=none;fillColor=none;fontColor=#000000;fontSize=13;" parent="1" vertex="1">
          <mxGeometry x="351" y="330" width="50" height="20" as="geometry" />
        </mxCell>
        <mxCell id="g1oebkqXrRwOGZYb2xab-126" style="rounded=0;orthogonalLoop=1;jettySize=auto;html=1;exitX=0;exitY=0.5;exitDx=0;exitDy=0;entryX=1;entryY=0.5;entryDx=0;entryDy=0;endArrow=async;strokeColor=#B7D94A;startArrow=async;startFill=1;endFill=1;strokeWidth=2;fillColor=#fff2cc;gradientColor=#ffd966;endSize=3;targetPerimeterSpacing=0;jumpSize=6;startSize=3;" parent="1" edge="1">
          <mxGeometry relative="1" as="geometry">
            <mxPoint x="401" y="350" as="sourcePoint" />
            <mxPoint x="501" y="350" as="targetPoint" />
          </mxGeometry>
        </mxCell>
        <mxCell id="g1oebkqXrRwOGZYb2xab-10" value="the" style="rhombus;whiteSpace=wrap;html=1;strokeColor=none;fillColor=none;fontColor=#000000;fontSize=13;" parent="1" vertex="1">
          <mxGeometry x="401" y="330" width="50" height="20" as="geometry" />
        </mxCell>
        <mxCell id="g1oebkqXrRwOGZYb2xab-11" value="dow" style="rhombus;whiteSpace=wrap;html=1;strokeColor=none;fillColor=none;fontColor=#000000;fontSize=13;" parent="1" vertex="1">
          <mxGeometry x="451" y="330" width="50" height="20" as="geometry" />
        </mxCell>
        <mxCell id="g1oebkqXrRwOGZYb2xab-125" style="rounded=0;orthogonalLoop=1;jettySize=auto;html=1;exitX=0;exitY=0.5;exitDx=0;exitDy=0;entryX=1;entryY=0.5;entryDx=0;entryDy=0;endArrow=async;strokeColor=#ff9a98;startArrow=async;startFill=1;endFill=1;strokeWidth=2;fillColor=#ffcd28;gradientColor=#ffa500;endSize=3;targetPerimeterSpacing=0;jumpSize=6;startSize=3;dashed=1;" parent="1" edge="1">
          <mxGeometry relative="1" as="geometry">
            <mxPoint x="501" y="370" as="sourcePoint" />
            <mxPoint x="851" y="370" as="targetPoint" />
          </mxGeometry>
        </mxCell>
        <mxCell id="g1oebkqXrRwOGZYb2xab-12" value="could" style="rhombus;whiteSpace=wrap;html=1;strokeColor=none;fillColor=none;fontColor=#000000;fontSize=13;" parent="1" vertex="1">
          <mxGeometry x="501" y="330" width="50" height="20" as="geometry" />
        </mxCell>
        <mxCell id="g1oebkqXrRwOGZYb2xab-124" style="rounded=0;orthogonalLoop=1;jettySize=auto;html=1;exitX=0;exitY=0.5;exitDx=0;exitDy=0;entryX=1;entryY=0.5;entryDx=0;entryDy=0;endArrow=async;strokeColor=#ff9a98;startArrow=async;startFill=1;endFill=1;strokeWidth=2;fillColor=#ffcd28;gradientColor=#ffa500;endSize=3;targetPerimeterSpacing=0;jumpSize=6;startSize=3;dashed=1;" parent="1" edge="1">
          <mxGeometry relative="1" as="geometry">
            <mxPoint x="551" y="365" as="sourcePoint" />
            <mxPoint x="851" y="365" as="targetPoint" />
          </mxGeometry>
        </mxCell>
        <mxCell id="g1oebkqXrRwOGZYb2xab-13" value="fall" style="rhombus;whiteSpace=wrap;html=1;strokeColor=none;fillColor=none;fontColor=#000000;fontSize=13;" parent="1" vertex="1">
          <mxGeometry x="551" y="330" width="50" height="20" as="geometry" />
        </mxCell>
        <mxCell id="g1oebkqXrRwOGZYb2xab-122" style="rounded=0;orthogonalLoop=1;jettySize=auto;html=1;exitX=0;exitY=0.5;exitDx=0;exitDy=0;entryX=1;entryY=0.5;entryDx=0;entryDy=0;endArrow=async;strokeColor=#ff9a98;startArrow=async;startFill=1;endFill=1;strokeWidth=2;fillColor=#f8cecc;gradientColor=#ea6b66;endSize=3;targetPerimeterSpacing=0;jumpSize=6;startSize=3;dashed=1;" parent="1" edge="1">
          <mxGeometry relative="1" as="geometry">
            <mxPoint x="601" y="350" as="sourcePoint" />
            <mxPoint x="701" y="350" as="targetPoint" />
          </mxGeometry>
        </mxCell>
        <mxCell id="g1oebkqXrRwOGZYb2xab-123" style="rounded=0;orthogonalLoop=1;jettySize=auto;html=1;exitX=0;exitY=0.5;exitDx=0;exitDy=0;entryX=1;entryY=0.5;entryDx=0;entryDy=0;endArrow=async;strokeColor=#B7D94A;startArrow=async;startFill=1;endFill=1;strokeWidth=2;fillColor=#fff2cc;gradientColor=#ffd966;endSize=3;targetPerimeterSpacing=0;jumpSize=6;startSize=3;" parent="1" edge="1">
          <mxGeometry relative="1" as="geometry">
            <mxPoint x="601" y="360" as="sourcePoint" />
            <mxPoint x="851" y="360" as="targetPoint" />
          </mxGeometry>
        </mxCell>
        <mxCell id="g1oebkqXrRwOGZYb2xab-14" value="as" style="rhombus;whiteSpace=wrap;html=1;strokeColor=none;fillColor=none;fontColor=#000000;fontSize=13;" parent="1" vertex="1">
          <mxGeometry x="601" y="330" width="50" height="20" as="geometry" />
        </mxCell>
        <mxCell id="g1oebkqXrRwOGZYb2xab-15" value="much" style="rhombus;whiteSpace=wrap;html=1;strokeColor=none;fillColor=none;fontColor=#000000;fontSize=13;" parent="1" vertex="1">
          <mxGeometry x="651" y="330" width="50" height="20" as="geometry" />
        </mxCell>
        <mxCell id="g1oebkqXrRwOGZYb2xab-121" style="rounded=0;orthogonalLoop=1;jettySize=auto;html=1;exitX=0;exitY=0.5;exitDx=0;exitDy=0;entryX=1;entryY=0.5;entryDx=0;entryDy=0;endArrow=async;strokeColor=#B7D94A;startArrow=async;startFill=1;endFill=1;strokeWidth=2;fillColor=#fff2cc;gradientColor=#ffd966;endSize=3;targetPerimeterSpacing=0;jumpSize=6;startSize=3;" parent="1" edge="1">
          <mxGeometry relative="1" as="geometry">
            <mxPoint x="702" y="355" as="sourcePoint" />
            <mxPoint x="851" y="355" as="targetPoint" />
          </mxGeometry>
        </mxCell>
        <mxCell id="g1oebkqXrRwOGZYb2xab-16" value="as" style="rhombus;whiteSpace=wrap;html=1;strokeColor=none;fillColor=none;fontColor=#000000;fontSize=13;" parent="1" vertex="1">
          <mxGeometry x="702" y="330" width="49" height="20" as="geometry" />
        </mxCell>
        <mxCell id="g1oebkqXrRwOGZYb2xab-120" style="rounded=0;orthogonalLoop=1;jettySize=auto;html=1;exitX=0;exitY=0.5;exitDx=0;exitDy=0;startArrow=async;startFill=1;endArrow=async;endFill=1;strokeWidth=2;fillColor=#fff2cc;gradientColor=#ffd966;strokeColor=#B7D94A;endSize=3;targetPerimeterSpacing=0;jumpSize=6;startSize=3;" parent="1" edge="1">
          <mxGeometry relative="1" as="geometry">
            <mxPoint x="751" y="350" as="sourcePoint" />
            <mxPoint x="851" y="350" as="targetPoint" />
          </mxGeometry>
        </mxCell>
        <mxCell id="g1oebkqXrRwOGZYb2xab-17" value="200" style="rhombus;whiteSpace=wrap;html=1;strokeColor=none;fillColor=none;fontColor=#000000;fontSize=13;" parent="1" vertex="1">
          <mxGeometry x="751" y="330" width="50" height="20" as="geometry" />
        </mxCell>
        <mxCell id="g1oebkqXrRwOGZYb2xab-19" value="points" style="rhombus;whiteSpace=wrap;html=1;strokeColor=none;fillColor=none;fontColor=#000000;fontSize=13;" parent="1" vertex="1">
          <mxGeometry x="801" y="330" width="50" height="20" as="geometry" />
        </mxCell>
        <mxCell id="g1oebkqXrRwOGZYb2xab-20" style="rounded=0;orthogonalLoop=1;jettySize=auto;html=1;exitX=0.5;exitY=1;exitDx=0;exitDy=0;entryX=0.5;entryY=0;entryDx=0;entryDy=0;endArrow=none;endFill=0;strokeWidth=2;" parent="1" edge="1">
          <mxGeometry relative="1" as="geometry">
            <mxPoint x="76" y="330" as="sourcePoint" />
            <mxPoint x="51" y="320" as="targetPoint" />
          </mxGeometry>
        </mxCell>
        <mxCell id="g1oebkqXrRwOGZYb2xab-21" style="rounded=0;orthogonalLoop=1;jettySize=auto;html=1;exitX=0.5;exitY=0;exitDx=0;exitDy=0;entryX=1;entryY=0.5;entryDx=0;entryDy=0;strokeColor=#000000;endArrow=none;endFill=0;strokeWidth=2;" parent="1" source="g1oebkqXrRwOGZYb2xab-4" edge="1">
          <mxGeometry relative="1" as="geometry">
            <mxPoint x="132" y="332" as="sourcePoint" />
            <mxPoint x="407" y="222" as="targetPoint" />
          </mxGeometry>
        </mxCell>
        <mxCell id="g1oebkqXrRwOGZYb2xab-30" style="rounded=0;orthogonalLoop=1;jettySize=auto;html=1;exitX=0.5;exitY=1;exitDx=0;exitDy=0;entryX=0.5;entryY=0;entryDx=0;entryDy=0;strokeColor=#000000;endArrow=none;endFill=0;strokeWidth=2;" parent="1" edge="1">
          <mxGeometry relative="1" as="geometry">
            <mxPoint x="474" y="333" as="sourcePoint" />
            <mxPoint x="449" y="323" as="targetPoint" />
          </mxGeometry>
        </mxCell>
        <mxCell id="g1oebkqXrRwOGZYb2xab-31" style="rounded=0;orthogonalLoop=1;jettySize=auto;html=1;exitX=0;exitY=0.5;exitDx=0;exitDy=0;entryX=0.5;entryY=1;entryDx=0;entryDy=0;strokeColor=#000000;endArrow=none;endFill=0;strokeWidth=2;" parent="1" edge="1">
          <mxGeometry relative="1" as="geometry">
            <mxPoint x="524" y="332" as="sourcePoint" />
            <mxPoint x="549" y="322" as="targetPoint" />
          </mxGeometry>
        </mxCell>
        <mxCell id="g1oebkqXrRwOGZYb2xab-35" style="rounded=0;orthogonalLoop=1;jettySize=auto;html=1;exitX=0;exitY=0.5;exitDx=0;exitDy=0;entryX=1;entryY=0.5;entryDx=0;entryDy=0;endArrow=none;endFill=0;strokeWidth=2;" parent="1" edge="1">
          <mxGeometry relative="1" as="geometry">
            <mxPoint x="726" y="330" as="sourcePoint" />
            <mxPoint x="776.0000000000002" y="310" as="targetPoint" />
          </mxGeometry>
        </mxCell>
        <mxCell id="g1oebkqXrRwOGZYb2xab-36" style="rounded=0;orthogonalLoop=1;jettySize=auto;html=1;exitX=0;exitY=0.5;exitDx=0;exitDy=0;entryX=1;entryY=0.5;entryDx=0;entryDy=0;strokeColor=#000000;endArrow=none;endFill=0;strokeWidth=2;" parent="1" edge="1">
          <mxGeometry relative="1" as="geometry">
            <mxPoint x="626" y="330" as="sourcePoint" />
            <mxPoint x="726" y="290" as="targetPoint" />
          </mxGeometry>
        </mxCell>
        <mxCell id="g1oebkqXrRwOGZYb2xab-38" style="rounded=0;orthogonalLoop=1;jettySize=auto;html=1;exitX=0.5;exitY=1;exitDx=0;exitDy=0;entryX=0.5;entryY=0;entryDx=0;entryDy=0;strokeColor=#000000;endArrow=none;endFill=0;strokeWidth=2;" parent="1" edge="1">
          <mxGeometry relative="1" as="geometry">
            <mxPoint x="677" y="331" as="sourcePoint" />
            <mxPoint x="752.0000000000002" y="301" as="targetPoint" />
          </mxGeometry>
        </mxCell>
        <mxCell id="g1oebkqXrRwOGZYb2xab-54" style="rounded=0;orthogonalLoop=1;jettySize=auto;html=1;exitX=0.5;exitY=1;exitDx=0;exitDy=0;fillColor=#f8cecc;strokeColor=#000000;endArrow=none;endFill=0;strokeWidth=2;" parent="1" edge="1">
          <mxGeometry relative="1" as="geometry">
            <mxPoint x="322" y="332" as="sourcePoint" />
            <mxPoint x="247" y="302" as="targetPoint" />
          </mxGeometry>
        </mxCell>
        <mxCell id="g1oebkqXrRwOGZYb2xab-70" style="rounded=0;orthogonalLoop=1;jettySize=auto;html=1;exitX=0.5;exitY=1;exitDx=0;exitDy=0;entryX=0.5;entryY=0;entryDx=0;entryDy=0;strokeColor=#000000;endArrow=none;endFill=0;strokeWidth=2;" parent="1" edge="1">
          <mxGeometry relative="1" as="geometry">
            <mxPoint x="407" y="222" as="sourcePoint" />
            <mxPoint x="482" y="192" as="targetPoint" />
          </mxGeometry>
        </mxCell>
        <mxCell id="g1oebkqXrRwOGZYb2xab-71" style="rounded=0;orthogonalLoop=1;jettySize=auto;html=1;exitX=0;exitY=0.5;exitDx=0;exitDy=0;entryX=0.5;entryY=0;entryDx=0;entryDy=0;endArrow=none;endFill=0;strokeWidth=2;" parent="1" edge="1">
          <mxGeometry relative="1" as="geometry">
            <mxPoint x="776" y="330" as="sourcePoint" />
            <mxPoint x="801" y="320" as="targetPoint" />
          </mxGeometry>
        </mxCell>
        <mxCell id="g1oebkqXrRwOGZYb2xab-73" style="rounded=0;orthogonalLoop=1;jettySize=auto;html=1;exitX=0.5;exitY=1;exitDx=0;exitDy=0;endArrow=none;endFill=0;strokeWidth=2;" parent="1" edge="1">
          <mxGeometry relative="1" as="geometry">
            <mxPoint x="226" y="330" as="sourcePoint" />
            <mxPoint x="200" y="320" as="targetPoint" />
          </mxGeometry>
        </mxCell>
        <mxCell id="g1oebkqXrRwOGZYb2xab-74" style="rounded=0;orthogonalLoop=1;jettySize=auto;html=1;exitX=0.5;exitY=1;exitDx=0;exitDy=0;entryX=1;entryY=0.5;entryDx=0;entryDy=0;fillColor=#f8cecc;strokeColor=#000000;endArrow=none;endFill=0;strokeWidth=2;" parent="1" edge="1">
          <mxGeometry relative="1" as="geometry">
            <mxPoint x="274" y="333" as="sourcePoint" />
            <mxPoint x="299" y="323" as="targetPoint" />
          </mxGeometry>
        </mxCell>
        <mxCell id="g1oebkqXrRwOGZYb2xab-76" style="rounded=0;orthogonalLoop=1;jettySize=auto;html=1;exitX=1;exitY=0.5;exitDx=0;exitDy=0;strokeColor=#000000;endArrow=none;endFill=0;strokeWidth=2;" parent="1" edge="1">
          <mxGeometry relative="1" as="geometry">
            <mxPoint x="571" y="332" as="sourcePoint" />
            <mxPoint x="500" y="301" as="targetPoint" />
          </mxGeometry>
        </mxCell>
        <mxCell id="g1oebkqXrRwOGZYb2xab-79" style="rounded=0;orthogonalLoop=1;jettySize=auto;html=1;exitX=0;exitY=0.5;exitDx=0;exitDy=0;endArrow=none;endFill=0;strokeWidth=2;" parent="1" edge="1">
          <mxGeometry relative="1" as="geometry">
            <mxPoint x="26" y="330" as="sourcePoint" />
            <mxPoint x="427" y="170" as="targetPoint" />
          </mxGeometry>
        </mxCell>
        <mxCell id="g1oebkqXrRwOGZYb2xab-80" style="rounded=0;orthogonalLoop=1;jettySize=auto;html=1;endArrow=none;endFill=0;strokeWidth=2;" parent="1" edge="1">
          <mxGeometry relative="1" as="geometry">
            <mxPoint x="596" y="238" as="sourcePoint" />
            <mxPoint x="425" y="170" as="targetPoint" />
          </mxGeometry>
        </mxCell>
        <mxCell id="g1oebkqXrRwOGZYb2xab-84" style="rounded=0;orthogonalLoop=1;jettySize=auto;html=1;exitX=0.5;exitY=1;exitDx=0;exitDy=0;endArrow=none;endFill=0;strokeWidth=2;" parent="1" edge="1">
          <mxGeometry relative="1" as="geometry">
            <mxPoint x="176" y="330" as="sourcePoint" />
            <mxPoint x="503" y="201" as="targetPoint" />
          </mxGeometry>
        </mxCell>
        <mxCell id="g1oebkqXrRwOGZYb2xab-135" style="rounded=0;orthogonalLoop=1;jettySize=auto;html=1;exitX=0;exitY=0.5;exitDx=0;exitDy=0;entryX=1;entryY=0.5;entryDx=0;entryDy=0;endArrow=async;strokeColor=#B7D94A;startArrow=async;startFill=1;endFill=1;strokeWidth=2;fillColor=#fff2cc;gradientColor=#ffd966;endSize=3;targetPerimeterSpacing=0;jumpSize=6;startSize=3;" parent="1" edge="1">
          <mxGeometry relative="1" as="geometry">
            <mxPoint x="401" y="375" as="sourcePoint" />
            <mxPoint x="851" y="375" as="targetPoint" />
          </mxGeometry>
        </mxCell>
        <mxCell id="g1oebkqXrRwOGZYb2xab-138" value="Teachers:&lt;br style=&quot;font-size: 15px;&quot;&gt;&amp;nbsp; &amp;nbsp; &lt;font color=&quot;#ff0000&quot;&gt;&amp;nbsp;&amp;nbsp;&lt;/font&gt;&amp;nbsp; Neural PCFG&lt;br style=&quot;font-size: 15px;&quot;&gt;&amp;nbsp; &amp;nbsp; &lt;font color=&quot;#0000ff&quot;&gt;&amp;nbsp;&amp;nbsp;&lt;/font&gt;&amp;nbsp; Ordered Neurons&lt;br style=&quot;font-size: 15px;&quot;&gt;&amp;nbsp; &amp;nbsp; &lt;font color=&quot;#00cc00&quot;&gt;&amp;nbsp;&amp;nbsp;&lt;/font&gt;&amp;nbsp; ContexDistort&lt;br style=&quot;font-size: 15px;&quot;&gt;&lt;b style=&quot;font-size: 15px;&quot;&gt;/\&amp;nbsp;&amp;nbsp;&lt;/b&gt;Agreed among all teachers" style="rounded=0;whiteSpace=wrap;html=1;align=left;strokeColor=none;fontSize=15;" parent="1" vertex="1">
          <mxGeometry x="1" y="-43" width="215" height="84" as="geometry" />
        </mxCell>
        <mxCell id="g1oebkqXrRwOGZYb2xab-141" value="&amp;nbsp;&amp;nbsp;&lt;span style=&quot;font-size: 15px;&quot;&gt;/\&lt;/span&gt;&lt;span style=&quot;font-size: 15px;&quot;&gt;&lt;span style=&quot;&quot;&gt;&amp;nbsp; &amp;nbsp;&amp;nbsp;&lt;/span&gt;&lt;/span&gt;Our ensemble&lt;br&gt;&amp;nbsp;&lt;font color=&quot;#b7d94a&quot; style=&quot;font-size: 21px;&quot;&gt;⥎&lt;/font&gt;&lt;span style=&quot;&quot;&gt;&lt;span style=&quot;&quot;&gt;&amp;nbsp;&amp;nbsp;&amp;nbsp;&lt;/span&gt;&lt;/span&gt;Recovered groundtruth&lt;br&gt;&amp;nbsp;&lt;font color=&quot;#ff9a98&quot; style=&quot;border-color: var(--border-color); font-size: 21px;&quot;&gt;- -&lt;/font&gt;&lt;span style=&quot;&quot;&gt;&lt;span style=&quot;white-space: pre;&quot;&gt;&amp;nbsp;&amp;nbsp;&lt;/span&gt;&lt;/span&gt;Missed groundtruth&lt;br&gt;&amp;nbsp;&lt;font style=&quot;border-color: var(--border-color);&quot;&gt;&lt;font color=&quot;#b5b0f8&quot; style=&quot;font-size: 21px;&quot;&gt;...&lt;/font&gt;&lt;font style=&quot;font-size: 21px;&quot; color=&quot;#83b367&quot;&gt;&amp;nbsp;&amp;nbsp;&lt;/font&gt;&lt;/font&gt;Discovered groundtruth" style="rounded=0;whiteSpace=wrap;html=1;align=left;strokeColor=none;fontSize=15;" parent="1" vertex="1">
          <mxGeometry x="1" y="168" width="215" height="84" as="geometry" />
        </mxCell>
        <mxCell id="g1oebkqXrRwOGZYb2xab-142" style="rounded=0;orthogonalLoop=1;jettySize=auto;html=1;exitX=0.5;exitY=1;exitDx=0;exitDy=0;strokeColor=#b5b0f8;endArrow=none;endFill=0;strokeWidth=4;dashed=1;dashPattern=1 1;" parent="1" edge="1">
          <mxGeometry relative="1" as="geometry">
            <mxPoint x="376" y="330" as="sourcePoint" />
            <mxPoint x="597" y="239" as="targetPoint" />
          </mxGeometry>
        </mxCell>
        <mxCell id="g1oebkqXrRwOGZYb2xab-143" style="rounded=0;orthogonalLoop=1;jettySize=auto;html=1;exitX=0;exitY=0.5;exitDx=0;exitDy=0;strokeColor=#000000;endArrow=none;endFill=0;strokeWidth=2;fillColor=#d5e8d4;gradientColor=#97d077;shadow=0;" parent="1" edge="1">
          <mxGeometry relative="1" as="geometry">
            <mxPoint x="424" y="333" as="sourcePoint" />
            <mxPoint x="624" y="249" as="targetPoint" />
          </mxGeometry>
        </mxCell>
        <mxCell id="g1oebkqXrRwOGZYb2xab-144" style="rounded=0;orthogonalLoop=1;jettySize=auto;html=1;exitX=1;exitY=0.5;exitDx=0;exitDy=0;endArrow=none;endFill=0;strokeWidth=4;fillColor=#d5e8d4;strokeColor=#b5b0f8;gradientColor=#97d077;shadow=0;dashed=1;dashPattern=1 1;" parent="1" edge="1">
          <mxGeometry relative="1" as="geometry">
            <mxPoint x="826" y="330" as="sourcePoint" />
            <mxPoint x="596" y="239" as="targetPoint" />
          </mxGeometry>
        </mxCell>
        <mxCell id="nczdtIkMriohUYaBnxqr-15" style="rounded=0;orthogonalLoop=1;jettySize=auto;html=1;endArrow=none;endFill=0;strokeColor=#afb7f8;strokeWidth=2;" parent="1" edge="1">
          <mxGeometry relative="1" as="geometry">
            <mxPoint x="21" y="-13" as="sourcePoint" />
            <mxPoint x="25" y="-26" as="targetPoint" />
          </mxGeometry>
        </mxCell>
        <mxCell id="nczdtIkMriohUYaBnxqr-16" style="rounded=0;orthogonalLoop=1;jettySize=auto;html=1;endArrow=none;endFill=0;strokeColor=#afb7f8;strokeWidth=2;" parent="1" edge="1">
          <mxGeometry relative="1" as="geometry">
            <mxPoint x="30" y="-13" as="sourcePoint" />
            <mxPoint x="25" y="-26" as="targetPoint" />
          </mxGeometry>
        </mxCell>
        <mxCell id="nczdtIkMriohUYaBnxqr-17" style="rounded=0;orthogonalLoop=1;jettySize=auto;html=1;endArrow=none;endFill=0;strokeColor=#44E87B;strokeWidth=2;dashed=1;" parent="1" edge="1">
          <mxGeometry relative="1" as="geometry">
            <mxPoint x="21" y="4" as="sourcePoint" />
            <mxPoint x="25" y="-9" as="targetPoint" />
          </mxGeometry>
        </mxCell>
        <mxCell id="nczdtIkMriohUYaBnxqr-18" style="rounded=0;orthogonalLoop=1;jettySize=auto;html=1;endArrow=none;endFill=0;strokeColor=#44E87B;strokeWidth=2;dashed=1;" parent="1" edge="1">
          <mxGeometry relative="1" as="geometry">
            <mxPoint x="30" y="4" as="sourcePoint" />
            <mxPoint x="25" y="-9" as="targetPoint" />
          </mxGeometry>
        </mxCell>
        <mxCell id="nczdtIkMriohUYaBnxqr-19" style="rounded=0;orthogonalLoop=1;jettySize=auto;html=1;endArrow=none;endFill=0;strokeColor=#00dcff;strokeWidth=2;dashed=1;dashPattern=1 1;" parent="1" edge="1">
          <mxGeometry relative="1" as="geometry">
            <mxPoint x="20" y="23" as="sourcePoint" />
            <mxPoint x="24" y="10" as="targetPoint" />
          </mxGeometry>
        </mxCell>
        <mxCell id="nczdtIkMriohUYaBnxqr-20" style="rounded=0;orthogonalLoop=1;jettySize=auto;html=1;endArrow=none;endFill=0;strokeColor=#00dcff;strokeWidth=2;dashed=1;dashPattern=1 1;" parent="1" edge="1">
          <mxGeometry relative="1" as="geometry">
            <mxPoint x="29" y="23" as="sourcePoint" />
            <mxPoint x="24" y="10" as="targetPoint" />
          </mxGeometry>
        </mxCell>
      </root>
    </mxGraphModel>
  </diagram>
</mxfile>
